<svg width="48" height="51" viewBox="0 0 48 51" fill="none" xmlns="http://www.w3.org/2000/svg">
<path d="M36.0156 7.79154C37.5573 6.62553 37.8619 4.43048 36.6959 2.88876C35.5299 1.34704 33.3348 1.04246 31.7931 2.20847L36.0156 7.79154ZM31.7931 2.20847C29.2879 4.10315 27.1221 4.49759 25.0771 4.16092C22.8563 3.79533 20.3898 2.49893 17.5864 0.263496L13.2222 5.73652C16.4331 8.29689 20.0151 10.4218 23.94 11.068C28.0406 11.743 32.1177 10.7395 36.0156 7.79154L31.7931 2.20847Z" fill="#1BA6DC"/>
<path d="M42.2218 19.8289C43.733 21.0343 45.9351 20.7864 47.1405 19.2753C48.3459 17.7641 48.098 15.5619 46.5868 14.3566L42.2218 19.8289ZM16.4043 17.0928L14.2779 19.8727L14.326 19.9095L14.3753 19.9446L16.4043 17.0928ZM30.9043 19.0928L32.6639 22.1183L32.8541 22.0077L33.0289 21.8741L30.9043 19.0928ZM5.40191 22.4667C6.81562 21.4841 7.76855 20.7684 8.80384 20.0835C9.7835 19.4355 10.475 19.069 11.0328 18.8814C11.5227 18.7167 11.8734 18.7017 12.2313 18.7773C12.6359 18.8628 13.2918 19.1185 14.2779 19.8727L18.5307 14.3128C16.9872 13.1321 15.3901 12.2903 13.6788 11.9286C11.9206 11.557 10.2925 11.7451 8.80155 12.2466C7.3784 12.7251 6.08686 13.4879 4.94199 14.2452C3.85277 14.9657 2.53973 15.9313 1.40671 16.7188L5.40191 22.4667ZM14.3753 19.9446C16.931 21.7629 19.5901 23.6694 22.5864 24.3257C25.9249 25.0569 29.1107 24.1847 32.6639 22.1183L29.1448 16.0672C26.4264 17.6481 25.0724 17.7042 24.084 17.4877C22.7534 17.1963 21.2983 16.2792 18.4333 14.2409L14.3753 19.9446ZM33.0289 21.8741C35.9995 19.605 37.7069 18.7447 38.8779 18.5451C39.6738 18.4095 40.5692 18.5107 42.2218 19.8289L46.5868 14.3566C43.949 12.2525 41.0871 11.0677 37.7019 11.6446C34.6919 12.1576 31.7946 14.0084 28.7797 16.3114L33.0289 21.8741Z" fill="#425AA0"/>
<path d="M35.4749 40.5608C36.8417 39.194 36.8417 36.9779 35.4749 35.6111C34.108 34.2442 31.892 34.2442 30.5251 35.6111L35.4749 40.5608ZM25 46.0859L22.5833 48.6177L25.0569 50.9788L27.4749 48.5608L25 46.0859ZM0.583335 27.6177L22.5833 48.6177L27.4167 43.5542L5.41667 22.5542L0.583335 27.6177ZM27.4749 48.5608L35.4749 40.5608L30.5251 35.6111L22.5251 43.6111L27.4749 48.5608Z" fill="#18A056"/>
</svg>
